<?xml version="1.0"?>
<svg xmlns="http://www.w3.org/2000/svg" id="Layer_1" data-name="Layer 1" viewBox="0 0 48 48" width="512" height="512"><path d="M12.644,11.05a.75.75,0,0,0,.75-.75V3.842a16.424,16.424,0,0,0,3.821.79V10.3a.75.75,0,0,0,1.5,0V8.679H20.35a.75.75,0,0,0,0-1.5H18.715v-2.4q1.454.111,3.332.161v5.89a.75.75,0,1,0,1.5,0V4.963c.358,0,.71.008,1.09.008,6.373,0,9.626-.515,11.243-1.129V18.5a.75.75,0,0,0,1.5,0V2.485C37.38,1.558,35.724,0,24.637,0S11.894,1.558,11.894,2.485V10.3A.75.75,0,0,0,12.644,11.05ZM35.355,2.485c-1.392.441-4.974.986-10.718.986s-9.326-.545-10.719-.986C15.312,2.044,18.9,1.5,24.637,1.5S33.961,2.044,35.355,2.485Z"/><path d="M31.9,20.4c-3.776,0-16.1.214-16.1,2.971V45.029C15.8,47.786,28.125,48,31.9,48S48,47.786,48,45.029V23.37C48,20.613,35.678,20.4,31.9,20.4ZM46.23,23.37c-1.413.663-6.685,1.471-14.329,1.471s-12.914-.808-14.328-1.471C18.992,22.706,24.264,21.9,31.9,21.9S44.812,22.706,46.23,23.37ZM31.9,46.5c-8.239,0-13.734-.939-14.6-1.624V24.808c3.278,1.35,11.062,1.522,14.263,1.532v18.2a.75.75,0,1,0,1.5,0V41.8H36.06a.75.75,0,0,0,0-1.5H33.066V36.356H36.06a.75.75,0,0,0,0-1.5H33.066V30.912H36.06a.75.75,0,0,0,0-1.5H33.066V26.334c1.259-.014,2.915-.052,4.683-.151V44.537a.75.75,0,0,0,1.5,0V26.083A27.175,27.175,0,0,0,46.5,24.809V44.876C45.637,45.561,40.142,46.5,31.9,46.5Z"/><path d="M14,35.914h-.16c-7.451,0-11.568-.835-12.338-1.335V16.3A13.679,13.679,0,0,0,4.3,17V33.377a.75.75,0,0,0,1.5,0V30.734H7.668a.75.75,0,0,0,0-1.5H5.8V26.092H7.668a.75.75,0,0,0,0-1.5H5.8V21.448H7.668a.75.75,0,0,0,0-1.5H5.8V17.194c1.061.118,2.3.212,3.772.274V33.377a.75.75,0,0,0,1.5,0V17.517c.859.021,1.773.034,2.766.034,7.1,0,10.629-.576,12.339-1.251v2.2a.75.75,0,0,0,1.5,0v-3.6c0-2.386-9.678-2.644-13.839-2.644S0,12.521,0,14.907V34.771c0,.987,1.8,2.643,13.838,2.643H14a.75.75,0,0,0,0-1.5ZM25.756,14.907c-1.379.5-5.352,1.144-11.918,1.144S3.3,15.4,1.92,14.907c1.38-.5,5.353-1.144,11.918-1.144S24.376,14.411,25.756,14.907Z"/></svg>
