<svg id="Layer_1" enable-background="new 0 0 74 74" height="512" viewBox="0 0 74 74" width="512" xmlns="http://www.w3.org/2000/svg"><g><path d="m63.3 30.3c0-14.5-11.8-26.3-26.3-26.3s-26.3 11.8-26.3 26.3c0 11.2 7.1 20.8 16.9 24.6v4.2c0 1.7 1.4 3.1 3.1 3.1h1.1v6.8c0 .6.4 1 1 1h8.5c.6 0 1-.4 1-1v-6.8h1.1c1.7 0 3-1.4 3-3.1v-4.2c9.9-3.8 16.9-13.4 16.9-24.6zm-23.1 37.7h-6.5v-5.8h6.5zm4.2-8.9c0 .6-.5 1.1-1 1.1h-12.7c-.6 0-1.1-.5-1.1-1.1v-3.5c2.3.7 4.8 1.1 7.4 1.1s5-.4 7.4-1.1zm-7.4-4.5c-2.8 0-5.5-.5-8-1.3-9.5-3.3-16.3-12.4-16.3-23 0-13.4 10.9-24.3 24.3-24.3s24.3 10.9 24.3 24.3-10.9 24.3-24.3 24.3z"/><path d="m58.1 30.4c0-.1 0-.1 0-.1 0-3.8-1-7.3-2.8-10.4v-.1c0-.1-.1-.1-.1-.1-1.8-3.1-4.4-5.7-7.5-7.5 0 0-.1-.1-.1-.1h-.1c-3.1-1.8-6.6-2.8-10.4-2.8s-7.4 1-10.4 2.8h-.1s-.1.1-.1.1c-3.1 1.8-5.7 4.4-7.5 7.5 0 0-.1.1-.1.1v.1c-1.8 3.1-2.8 6.6-2.8 10.4 0 3.7 1 7.3 2.8 10.4v.1c0 .1.1.1.1.2 1.4 2.4 3.4 4.6 5.7 6.3.2.1.4.2.6.2.3 0 .6-.1.8-.4.3-.4.2-1.1-.2-1.4-1.9-1.4-3.5-3.1-4.7-5l1.5-.9c.5-.3.6-.9.4-1.4-.3-.5-.9-.6-1.4-.4l-1.7 1c-1.2-2.4-1.9-5-2.1-7.6h1.7c.6 0 1-.4 1-1s-.4-1-1-1h-1.6c.1-2.7.9-5.3 2-7.6l1.5.9c.2.1.3.1.5.1.3 0 .7-.2.9-.5.3-.5.1-1.1-.4-1.4l-1.5-1c1.5-2.2 3.4-4.1 5.6-5.6l.9 1.5c.2.3.5.5.9.5.2 0 .3 0 .5-.1.5-.3.6-.9.4-1.4l-.9-1.5c2.3-1.2 4.9-1.9 7.7-2v1.7c0 .6.4 1 1 1s1-.4 1-1v-1.7c2.7.1 5.3.9 7.6 2l-.9 1.5c-.3.5-.1 1.1.4 1.4.2.1.3.1.5.1.3 0 .7-.2.9-.5l.9-1.5c2.2 1.5 4.1 3.4 5.6 5.6l-1.5.9c-.5.3-.6.9-.4 1.4.2.3.5.5.9.5.2 0 .3 0 .5-.1l1.5-.9c1.2 2.3 1.9 4.9 2 7.6h-1.7c-.6 0-1 .4-1 1s.4 1 1 1h1.6c-.1 2.7-.8 5.3-2 7.7l-1.5-.9c-.5-.3-1.1-.1-1.4.4s-.1 1.1.4 1.4l1.5.9c-1.2 1.9-2.8 3.6-4.7 5-.4.3-.5 1-.2 1.4s1 .5 1.4.2c2.3-1.7 4.2-3.8 5.7-6.2l.2-.2c0-.1 0-.1.1-.2 1.6-3.2 2.6-6.8 2.6-10.4z"/><path d="m34.9 36.5v-2.6l.5-.5c.5.3 1.1.4 1.6.4.9 0 1.8-.4 2.5-1 1.1-1.1 1.3-2.8.6-4.1l7.8-7.8c.4-.4.4-1 0-1.4s-1-.4-1.4 0l-7.8 7.8c-.5-.3-1.1-.4-1.7-.4-.9 0-1.8.4-2.5 1-.7.7-1 1.5-1 2.5 0 .6.2 1.1.4 1.6l-.5.5h-2.6c-.3 0-.5.1-.7.3l-1.5 1.5c-.4.4-.4 1 0 1.4s1 .4 1.4 0l1.2-1.2h1.6v1.6l-1.2 1.2c-.4.4-.4 1 0 1.4.2.2.5.3.7.3s.5-.1.7-.3l1.5-1.5c.2-.2.4-.5.4-.7zm1.1-7.2c.3-.3.7-.4 1-.4.4 0 .8.2 1.1.4.6.6.6 1.5 0 2.1-.3.3-.7.4-1.1.4-.4 0-.8-.2-1-.4-.3-.3-.4-.6-.4-1-.1-.5.1-.9.4-1.1z"/><path d="m37.2 39.8c-.3 0-.6.1-.8.4-.5.7-3.2 4-3.2 5.9 0 2.2 1.8 4 4 4s4-1.8 4-4c0-1.9-2.7-5.3-3.2-5.9-.2-.2-.5-.4-.8-.4zm0 8.3c-1.1 0-2-.9-2-2 0-.6.9-2.2 2-3.6 1 1.4 2 3 2 3.6-.1 1.1-.9 2-2 2z"/></g></svg>