<svg id="Layer_1" enable-background="new 0 0 512 512" viewBox="0 0 512 512" xmlns="http://www.w3.org/2000/svg"><path d="m495.18 245.44-235-228.74c-2.33-2.27-6.04-2.27-8.37 0l-235 228.74c-1.12 1.09-1.82 2.61-1.82 4.3v30.96 210.3c0 3.31 2.69 6 6 6h36.71c3.31 0 6-2.69 6-6v-173.34h384.58v173.34c0 3.31 2.69 6 6 6h36.72c3.31 0 6-2.69 6-6v-210.3-30.96c0-1.69-.7-3.21-1.82-4.3zm-468.18 29.26v-18.96h228.98.02.01 228.99v18.96zm412.47-30.96h-20.4v-19.75zm-32.4 0h-57.61l45.3-43.29 12.3 11.91v31.38zm-66.57-8.03v-87.81l45.64 44.2zm-12 8.03h-62.65l57.9-112.06 4.75 4.6zm-66.5-18.69v-153.18l52.75 51.09zm-12 0-52.75-102.1 52.75-51.08zm-61.75-93.37 57.9 112.06h-62.65v-107.46zm-16.75 104.03-45.64-43.61 45.64-44.2zm-54.27-35.26 45.3 43.29h-57.61v-31.37zm-24.3 43.29h-20.4l20.4-19.75zm163.07-214.37 220.23 214.36h-19.51l-196.55-190.33c-2.33-2.25-6.02-2.25-8.35 0l-196.54 190.34h-19.51zm-229 455.63v-198.3h24.71v198.3zm36.71-179.34v-18.96h384.58v18.96zm396.58 179.34v-198.3h24.71v198.3z"/></svg>