<?xml version="1.0"?>
<svg xmlns="http://www.w3.org/2000/svg" id="line" viewBox="0 0 64 64"><path d="M59.97744,38.40076a1.03419,1.03419,0,0,0-.7481-.88278,6.65046,6.65046,0,0,1-3.092-1.80158,2.19012,2.19012,0,0,0-3.28971.00586,3.69489,3.69489,0,0,1-2.8752,1.30358,3.73564,3.73564,0,0,1-2.83419-1.30944,2.19294,2.19294,0,0,0-3.28581.001,3.753,3.753,0,0,1-5.37885.3525,2.34875,2.34875,0,0,0-3.95225-.00085,3.75384,3.75384,0,0,1-5.38129-.35269,2.2931,2.2931,0,0,0-3.61775.35262,3.758,3.758,0,0,1-5.04692.00092,2.294,2.294,0,0,0-3.6203-.35244,3.75049,3.75049,0,0,1-5.71324-.0011,2.19243,2.19243,0,0,0-3.28531.001A6.64256,6.64256,0,0,1,4.767,37.517a1.07094,1.07094,0,0,0-.76695.96768L4,49.86342a.99964.99964,0,0,0,.9999.9999H58.9945a.99964.99964,0,0,0,.9999-.9999C59.9778,49.77945,60.02644,38.47241,59.97744,38.40076ZM57.9946,48.86352H5.9998V39.22264a8.03271,8.03271,0,0,0,3.39615-2.229c.19553-.20378.51758.42946.71379.53595a5.786,5.786,0,0,0,7.78-.00085c.21482-.11034.48231-.72661.71135-.5362a5.77968,5.77968,0,0,0,8.28775.53614c.217-.11248.48048-.72539.71135-.53614a5.77967,5.77967,0,0,0,8.28775.53614c.22214-.11535.47639-.72387.71135-.53614a5.77966,5.77966,0,0,0,8.28775.53614c.232-.12041.46858-.721.71135-.53614a5.80841,5.80841,0,0,0,8.79307.001.1286.1286,0,0,1,.20652-.00085,8.03276,8.03276,0,0,0,3.39663,2.23Z"/><path d="M31.9972,30.11534a2.96419,2.96419,0,0,1,.80021-2.06712,5.1015,5.1015,0,0,0-.00067-6.534,2.96648,2.96648,0,0,1-.79954-2.06669c.10046-2.3603,2.06156-2.44818,1.99968-5.33058a1,1,0,0,0-1.99968.00012,2.96286,2.96286,0,0,1-.79972,2.06516,5.09874,5.09874,0,0,0-.00031,6.53206,2.96489,2.96489,0,0,1,.8,2.06718c-.10375,2.36707-2.06339,2.45483-1.9998,5.33394A1.0001,1.0001,0,0,0,31.9972,30.11534Z"/><path d="M23.998,30.11534a2.96419,2.96419,0,0,1,.80021-2.06712,5.1015,5.1015,0,0,0-.00067-6.534,2.96648,2.96648,0,0,1-.79954-2.06669c.10046-2.3603,2.06156-2.44818,1.99968-5.33058a1,1,0,0,0-1.99968.00012,2.96286,2.96286,0,0,1-.79972,2.06516,5.09874,5.09874,0,0,0-.00031,6.53206,2.96489,2.96489,0,0,1,.8,2.06718c-.10375,2.36707-2.06339,2.45483-1.9998,5.33394A1.0001,1.0001,0,0,0,23.998,30.11534Z"/><path d="M15.9988,30.11534a2.96419,2.96419,0,0,1,.80021-2.06712,5.1015,5.1015,0,0,0-.00067-6.534,2.96648,2.96648,0,0,1-.79954-2.06669c.10045-2.3603,2.06156-2.44818,1.99968-5.33058a1,1,0,0,0-1.99968.00012,2.96286,2.96286,0,0,1-.79972,2.06516,5.09872,5.09872,0,0,0-.00031,6.53206,2.96489,2.96489,0,0,1,.8,2.06718c-.10375,2.36707-2.06339,2.45483-1.9998,5.33394A1.0001,1.0001,0,0,0,15.9988,30.11534Z"/><path d="M39.9964,30.11534a2.96416,2.96416,0,0,1,.80022-2.06712,5.1015,5.1015,0,0,0-.00068-6.534,2.96648,2.96648,0,0,1-.79954-2.06669c.10046-2.3603,2.06156-2.44818,1.99968-5.33058a1,1,0,0,0-1.99968.00012,2.96286,2.96286,0,0,1-.79972,2.06516,5.09874,5.09874,0,0,0-.00031,6.53206,2.96489,2.96489,0,0,1,.8,2.06718c-.10375,2.36707-2.06339,2.45483-1.9998,5.33394A1.0001,1.0001,0,0,0,39.9964,30.11534Z"/><path d="M47.9956,30.11534a2.96416,2.96416,0,0,1,.80022-2.06712,5.1015,5.1015,0,0,0-.00068-6.534,2.96648,2.96648,0,0,1-.79954-2.06669c.10046-2.3603,2.06156-2.44818,1.99968-5.33058a1,1,0,0,0-1.99968.00012,2.96286,2.96286,0,0,1-.79972,2.06516,5.09875,5.09875,0,0,0-.00031,6.53206,2.96489,2.96489,0,0,1,.8,2.06718c-.10375,2.36707-2.06339,2.45483-1.9998,5.33394A1.0001,1.0001,0,0,0,47.9956,30.11534Z"/></svg>
